%TF.GenerationSoftware,KiCad,Pcbnew,(5.1.6)-1*%
%TF.CreationDate,2020-06-28T09:04:37-05:00*%
%TF.ProjectId,PcbTUT,50636254-5554-42e6-9b69-6361645f7063,rev?*%
%TF.SameCoordinates,Original*%
%TF.FileFunction,Copper,L1,Top*%
%TF.FilePolarity,Positive*%
%FSLAX46Y46*%
G04 Gerber Fmt 4.6, Leading zero omitted, Abs format (unit mm)*
G04 Created by KiCad (PCBNEW (5.1.6)-1) date 2020-06-28 09:04:37*
%MOMM*%
%LPD*%
G01*
G04 APERTURE LIST*
%TA.AperFunction,ComponentPad*%
%ADD10C,2.250000*%
%TD*%
%TA.AperFunction,ComponentPad*%
%ADD11O,1.700000X2.700000*%
%TD*%
%TA.AperFunction,SMDPad,CuDef*%
%ADD12R,1.800000X1.100000*%
%TD*%
%TA.AperFunction,ViaPad*%
%ADD13C,0.800000*%
%TD*%
%TA.AperFunction,Conductor*%
%ADD14C,0.381000*%
%TD*%
%TA.AperFunction,Conductor*%
%ADD15C,0.254000*%
%TD*%
%TA.AperFunction,NonConductor*%
%ADD16C,0.254000*%
%TD*%
G04 APERTURE END LIST*
D10*
%TO.P,MX2,1*%
%TO.N,COL0*%
X110212500Y-103950000D03*
%TA.AperFunction,ComponentPad*%
G36*
G01*
X108151183Y-106247345D02*
X108151183Y-106247345D01*
G75*
G02*
X108065155Y-104658683I751317J837345D01*
G01*
X109375157Y-103198683D01*
G75*
G02*
X110963819Y-103112655I837345J-751317D01*
G01*
X110963819Y-103112655D01*
G75*
G02*
X111049847Y-104701317I-751317J-837345D01*
G01*
X109739845Y-106161317D01*
G75*
G02*
X108151183Y-106247345I-837345J751317D01*
G01*
G37*
%TD.AperFunction*%
%TO.P,MX2,2*%
%TO.N,Net-(D3-Pad2)*%
X115252500Y-102870000D03*
%TA.AperFunction,ComponentPad*%
G36*
G01*
X115135097Y-104572334D02*
X115135097Y-104572334D01*
G75*
G02*
X114090166Y-103372597I77403J1122334D01*
G01*
X114130166Y-102792597D01*
G75*
G02*
X115329903Y-101747666I1122334J-77403D01*
G01*
X115329903Y-101747666D01*
G75*
G02*
X116374834Y-102947403I-77403J-1122334D01*
G01*
X116334834Y-103527403D01*
G75*
G02*
X115135097Y-104572334I-1122334J77403D01*
G01*
G37*
%TD.AperFunction*%
%TD*%
D11*
%TO.P,USB1,6*%
%TO.N,Net-(USB1-Pad6)*%
X68994000Y-81127600D03*
X76294000Y-81127600D03*
X76294000Y-85627600D03*
X68994000Y-85627600D03*
%TD*%
D12*
%TO.P,SW1,4*%
%TO.N,N/C*%
X68020000Y-113610000D03*
%TO.P,SW1,3*%
X74220000Y-109910000D03*
%TO.P,SW1,2*%
%TO.N,Net-(R3-Pad2)*%
X68020000Y-109910000D03*
%TO.P,SW1,1*%
%TO.N,GND*%
X74220000Y-113610000D03*
%TD*%
D10*
%TO.P,MX3,1*%
%TO.N,COL1*%
X129262500Y-103950000D03*
%TA.AperFunction,ComponentPad*%
G36*
G01*
X127201183Y-106247345D02*
X127201183Y-106247345D01*
G75*
G02*
X127115155Y-104658683I751317J837345D01*
G01*
X128425157Y-103198683D01*
G75*
G02*
X130013819Y-103112655I837345J-751317D01*
G01*
X130013819Y-103112655D01*
G75*
G02*
X130099847Y-104701317I-751317J-837345D01*
G01*
X128789845Y-106161317D01*
G75*
G02*
X127201183Y-106247345I-837345J751317D01*
G01*
G37*
%TD.AperFunction*%
%TO.P,MX3,2*%
%TO.N,Net-(D4-Pad2)*%
X134302500Y-102870000D03*
%TA.AperFunction,ComponentPad*%
G36*
G01*
X134185097Y-104572334D02*
X134185097Y-104572334D01*
G75*
G02*
X133140166Y-103372597I77403J1122334D01*
G01*
X133180166Y-102792597D01*
G75*
G02*
X134379903Y-101747666I1122334J-77403D01*
G01*
X134379903Y-101747666D01*
G75*
G02*
X135424834Y-102947403I-77403J-1122334D01*
G01*
X135384834Y-103527403D01*
G75*
G02*
X134185097Y-104572334I-1122334J77403D01*
G01*
G37*
%TD.AperFunction*%
%TD*%
%TO.P,MX1,1*%
%TO.N,COL1*%
X129262500Y-84900000D03*
%TA.AperFunction,ComponentPad*%
G36*
G01*
X127201183Y-87197345D02*
X127201183Y-87197345D01*
G75*
G02*
X127115155Y-85608683I751317J837345D01*
G01*
X128425157Y-84148683D01*
G75*
G02*
X130013819Y-84062655I837345J-751317D01*
G01*
X130013819Y-84062655D01*
G75*
G02*
X130099847Y-85651317I-751317J-837345D01*
G01*
X128789845Y-87111317D01*
G75*
G02*
X127201183Y-87197345I-837345J751317D01*
G01*
G37*
%TD.AperFunction*%
%TO.P,MX1,2*%
%TO.N,Net-(D2-Pad2)*%
X134302500Y-83820000D03*
%TA.AperFunction,ComponentPad*%
G36*
G01*
X134185097Y-85522334D02*
X134185097Y-85522334D01*
G75*
G02*
X133140166Y-84322597I77403J1122334D01*
G01*
X133180166Y-83742597D01*
G75*
G02*
X134379903Y-82697666I1122334J-77403D01*
G01*
X134379903Y-82697666D01*
G75*
G02*
X135424834Y-83897403I-77403J-1122334D01*
G01*
X135384834Y-84477403D01*
G75*
G02*
X134185097Y-85522334I-1122334J77403D01*
G01*
G37*
%TD.AperFunction*%
%TD*%
%TO.P,MX0,1*%
%TO.N,COL0*%
X110212500Y-84900000D03*
%TA.AperFunction,ComponentPad*%
G36*
G01*
X108151183Y-87197345D02*
X108151183Y-87197345D01*
G75*
G02*
X108065155Y-85608683I751317J837345D01*
G01*
X109375157Y-84148683D01*
G75*
G02*
X110963819Y-84062655I837345J-751317D01*
G01*
X110963819Y-84062655D01*
G75*
G02*
X111049847Y-85651317I-751317J-837345D01*
G01*
X109739845Y-87111317D01*
G75*
G02*
X108151183Y-87197345I-837345J751317D01*
G01*
G37*
%TD.AperFunction*%
%TO.P,MX0,2*%
%TO.N,Net-(D1-Pad2)*%
X115252500Y-83820000D03*
%TA.AperFunction,ComponentPad*%
G36*
G01*
X115135097Y-85522334D02*
X115135097Y-85522334D01*
G75*
G02*
X114090166Y-84322597I77403J1122334D01*
G01*
X114130166Y-83742597D01*
G75*
G02*
X115329903Y-82697666I1122334J-77403D01*
G01*
X115329903Y-82697666D01*
G75*
G02*
X116374834Y-83897403I-77403J-1122334D01*
G01*
X116334834Y-84477403D01*
G75*
G02*
X115135097Y-85522334I-1122334J77403D01*
G01*
G37*
%TD.AperFunction*%
%TD*%
D13*
%TO.N,GND*%
X77724000Y-113284000D03*
%TO.N,+5V*%
X81788000Y-99060000D03*
X81788000Y-103632000D03*
X79248000Y-91440000D03*
X102616000Y-97536000D03*
X97028000Y-110236000D03*
%TO.N,Net-(R3-Pad2)*%
X78232000Y-96012000D03*
%TD*%
D14*
%TO.N,GND*%
X74220000Y-113610000D02*
X77398000Y-113610000D01*
X77398000Y-113610000D02*
X77724000Y-113284000D01*
%TO.N,+5V*%
X81788000Y-99060000D02*
X81788000Y-103632000D01*
X81788000Y-99060000D02*
X81788000Y-93980000D01*
X81788000Y-93980000D02*
X79248000Y-91440000D01*
X102616000Y-97536000D02*
X102616000Y-107188000D01*
X102616000Y-107188000D02*
X99568000Y-110236000D01*
X99568000Y-110236000D02*
X97028000Y-110236000D01*
X97028000Y-110236000D02*
X85344000Y-110236000D01*
X81788000Y-106680000D02*
X81788000Y-103632000D01*
X85344000Y-110236000D02*
X81788000Y-106680000D01*
D15*
%TO.N,COL0*%
X108902500Y-86360000D02*
X108902500Y-105410000D01*
X108902500Y-105410000D02*
X108902500Y-104838500D01*
%TO.N,COL1*%
X127952500Y-86360000D02*
X127952500Y-105410000D01*
%TO.N,Net-(R3-Pad2)*%
X68020000Y-109910000D02*
X68020000Y-106224000D01*
X68020000Y-106224000D02*
X78232000Y-96012000D01*
%TD*%
D16*
G36*
X91313000Y-113336606D02*
G01*
X91313000Y-115771394D01*
X90879394Y-116205000D01*
X81840606Y-116205000D01*
X81407000Y-115771394D01*
X81407000Y-113336606D01*
X81840606Y-112903000D01*
X90879394Y-112903000D01*
X91313000Y-113336606D01*
G37*
X91313000Y-113336606D02*
X91313000Y-115771394D01*
X90879394Y-116205000D01*
X81840606Y-116205000D01*
X81407000Y-115771394D01*
X81407000Y-113336606D01*
X81840606Y-112903000D01*
X90879394Y-112903000D01*
X91313000Y-113336606D01*
M02*
