M48
; DRILL file {KiCad (5.1.6)-1} date 06/28/20 09:05:07
; FORMAT={-:-/ absolute / inch / decimal}
; #@! TF.CreationDate,2020-06-28T09:05:07-05:00
; #@! TF.GenerationSoftware,Kicad,Pcbnew,(5.1.6)-1
FMAT,2
INCH
T1C0.0157
T2C0.0276
T3C0.0579
T4C0.0689
T5C0.1570
%
G90
G05
T1
X3.06Y-4.46
X3.08Y-3.78
X3.12Y-3.6
X3.22Y-3.9
X3.22Y-4.08
X3.82Y-4.34
X4.04Y-3.84
T3
X4.2875Y-3.4
X4.3391Y-3.3425
X4.5359Y-3.3228
X4.5375Y-3.3
X5.0375Y-3.4
X5.0891Y-3.3425
X5.2859Y-3.3228
X5.2875Y-3.3
X5.0375Y-4.15
X5.0891Y-4.0925
X5.2859Y-4.0728
X5.2875Y-4.05
X4.2875Y-4.15
X4.3391Y-4.0925
X4.5359Y-4.0728
X4.5375Y-4.05
T4
X4.2375Y-3.5
X4.6375Y-3.5
X4.9875Y-3.5
X5.3875Y-3.5
X4.9875Y-4.25
X5.3875Y-4.25
X4.2375Y-4.25
X4.6375Y-4.25
T5
X4.4375Y-3.5
X5.1875Y-3.5
X5.1875Y-4.25
X4.4375Y-4.25
T2
G00X2.7163Y-3.1704
M15
G01X2.7163Y-3.2176
M16
G05
G00X2.7163Y-3.3475
M15
G01X2.7163Y-3.3948
M16
G05
G00X3.0037Y-3.1704
M15
G01X3.0037Y-3.2176
M16
G05
G00X3.0037Y-3.3475
M15
G01X3.0037Y-3.3948
M16
G05
T0
M30
