%TF.GenerationSoftware,KiCad,Pcbnew,(5.1.6)-1*%
%TF.CreationDate,2020-06-28T09:04:37-05:00*%
%TF.ProjectId,PcbTUT,50636254-5554-42e6-9b69-6361645f7063,rev?*%
%TF.SameCoordinates,Original*%
%TF.FileFunction,Paste,Bot*%
%TF.FilePolarity,Positive*%
%FSLAX46Y46*%
G04 Gerber Fmt 4.6, Leading zero omitted, Abs format (unit mm)*
G04 Created by KiCad (PCBNEW (5.1.6)-1) date 2020-06-28 09:04:37*
%MOMM*%
%LPD*%
G01*
G04 APERTURE LIST*
%ADD10R,1.400000X1.200000*%
%ADD11R,0.500000X2.250000*%
%ADD12R,0.550000X1.500000*%
%ADD13R,1.500000X0.550000*%
%ADD14R,1.200000X0.900000*%
G04 APERTURE END LIST*
D10*
%TO.C,Y1*%
X91873250Y-88177000D03*
X89673250Y-88177000D03*
X89673250Y-89877000D03*
X91873250Y-89877000D03*
%TD*%
D11*
%TO.C,USB1*%
X71044000Y-85627600D03*
X71844000Y-85627600D03*
X72644000Y-85627600D03*
X73444000Y-85627600D03*
X74244000Y-85627600D03*
%TD*%
D12*
%TO.C,U1*%
X85535000Y-105839500D03*
X86335000Y-105839500D03*
X87135000Y-105839500D03*
X87935000Y-105839500D03*
X88735000Y-105839500D03*
X89535000Y-105839500D03*
X90335000Y-105839500D03*
X91135000Y-105839500D03*
X91935000Y-105839500D03*
X92735000Y-105839500D03*
X93535000Y-105839500D03*
D13*
X95235000Y-104139500D03*
X95235000Y-103339500D03*
X95235000Y-102539500D03*
X95235000Y-101739500D03*
X95235000Y-100939500D03*
X95235000Y-100139500D03*
X95235000Y-99339500D03*
X95235000Y-98539500D03*
X95235000Y-97739500D03*
X95235000Y-96939500D03*
X95235000Y-96139500D03*
D12*
X93535000Y-94439500D03*
X92735000Y-94439500D03*
X91935000Y-94439500D03*
X91135000Y-94439500D03*
X90335000Y-94439500D03*
X89535000Y-94439500D03*
X88735000Y-94439500D03*
X87935000Y-94439500D03*
X87135000Y-94439500D03*
X86335000Y-94439500D03*
X85535000Y-94439500D03*
D13*
X83835000Y-96139500D03*
X83835000Y-96939500D03*
X83835000Y-97739500D03*
X83835000Y-98539500D03*
X83835000Y-99339500D03*
X83835000Y-100139500D03*
X83835000Y-100939500D03*
X83835000Y-101739500D03*
X83835000Y-102539500D03*
X83835000Y-103339500D03*
X83835000Y-104139500D03*
%TD*%
%TO.C,R4*%
G36*
G01*
X71576250Y-90482000D02*
X70663750Y-90482000D01*
G75*
G02*
X70420000Y-90238250I0J243750D01*
G01*
X70420000Y-89750750D01*
G75*
G02*
X70663750Y-89507000I243750J0D01*
G01*
X71576250Y-89507000D01*
G75*
G02*
X71820000Y-89750750I0J-243750D01*
G01*
X71820000Y-90238250D01*
G75*
G02*
X71576250Y-90482000I-243750J0D01*
G01*
G37*
G36*
G01*
X71576250Y-92357000D02*
X70663750Y-92357000D01*
G75*
G02*
X70420000Y-92113250I0J243750D01*
G01*
X70420000Y-91625750D01*
G75*
G02*
X70663750Y-91382000I243750J0D01*
G01*
X71576250Y-91382000D01*
G75*
G02*
X71820000Y-91625750I0J-243750D01*
G01*
X71820000Y-92113250D01*
G75*
G02*
X71576250Y-92357000I-243750J0D01*
G01*
G37*
%TD*%
%TO.C,R3*%
G36*
G01*
X79807750Y-94938000D02*
X80720250Y-94938000D01*
G75*
G02*
X80964000Y-95181750I0J-243750D01*
G01*
X80964000Y-95669250D01*
G75*
G02*
X80720250Y-95913000I-243750J0D01*
G01*
X79807750Y-95913000D01*
G75*
G02*
X79564000Y-95669250I0J243750D01*
G01*
X79564000Y-95181750D01*
G75*
G02*
X79807750Y-94938000I243750J0D01*
G01*
G37*
G36*
G01*
X79807750Y-93063000D02*
X80720250Y-93063000D01*
G75*
G02*
X80964000Y-93306750I0J-243750D01*
G01*
X80964000Y-93794250D01*
G75*
G02*
X80720250Y-94038000I-243750J0D01*
G01*
X79807750Y-94038000D01*
G75*
G02*
X79564000Y-93794250I0J243750D01*
G01*
X79564000Y-93306750D01*
G75*
G02*
X79807750Y-93063000I243750J0D01*
G01*
G37*
%TD*%
%TO.C,R2*%
G36*
G01*
X74116250Y-90482000D02*
X73203750Y-90482000D01*
G75*
G02*
X72960000Y-90238250I0J243750D01*
G01*
X72960000Y-89750750D01*
G75*
G02*
X73203750Y-89507000I243750J0D01*
G01*
X74116250Y-89507000D01*
G75*
G02*
X74360000Y-89750750I0J-243750D01*
G01*
X74360000Y-90238250D01*
G75*
G02*
X74116250Y-90482000I-243750J0D01*
G01*
G37*
G36*
G01*
X74116250Y-92357000D02*
X73203750Y-92357000D01*
G75*
G02*
X72960000Y-92113250I0J243750D01*
G01*
X72960000Y-91625750D01*
G75*
G02*
X73203750Y-91382000I243750J0D01*
G01*
X74116250Y-91382000D01*
G75*
G02*
X74360000Y-91625750I0J-243750D01*
G01*
X74360000Y-92113250D01*
G75*
G02*
X74116250Y-92357000I-243750J0D01*
G01*
G37*
%TD*%
%TO.C,R1*%
G36*
G01*
X99516250Y-104452000D02*
X98603750Y-104452000D01*
G75*
G02*
X98360000Y-104208250I0J243750D01*
G01*
X98360000Y-103720750D01*
G75*
G02*
X98603750Y-103477000I243750J0D01*
G01*
X99516250Y-103477000D01*
G75*
G02*
X99760000Y-103720750I0J-243750D01*
G01*
X99760000Y-104208250D01*
G75*
G02*
X99516250Y-104452000I-243750J0D01*
G01*
G37*
G36*
G01*
X99516250Y-106327000D02*
X98603750Y-106327000D01*
G75*
G02*
X98360000Y-106083250I0J243750D01*
G01*
X98360000Y-105595750D01*
G75*
G02*
X98603750Y-105352000I243750J0D01*
G01*
X99516250Y-105352000D01*
G75*
G02*
X99760000Y-105595750I0J-243750D01*
G01*
X99760000Y-106083250D01*
G75*
G02*
X99516250Y-106327000I-243750J0D01*
G01*
G37*
%TD*%
%TO.C,F1*%
G36*
G01*
X69205000Y-95237000D02*
X67955000Y-95237000D01*
G75*
G02*
X67705000Y-94987000I0J250000D01*
G01*
X67705000Y-94237000D01*
G75*
G02*
X67955000Y-93987000I250000J0D01*
G01*
X69205000Y-93987000D01*
G75*
G02*
X69455000Y-94237000I0J-250000D01*
G01*
X69455000Y-94987000D01*
G75*
G02*
X69205000Y-95237000I-250000J0D01*
G01*
G37*
G36*
G01*
X69205000Y-98037000D02*
X67955000Y-98037000D01*
G75*
G02*
X67705000Y-97787000I0J250000D01*
G01*
X67705000Y-97037000D01*
G75*
G02*
X67955000Y-96787000I250000J0D01*
G01*
X69205000Y-96787000D01*
G75*
G02*
X69455000Y-97037000I0J-250000D01*
G01*
X69455000Y-97787000D01*
G75*
G02*
X69205000Y-98037000I-250000J0D01*
G01*
G37*
%TD*%
D14*
%TO.C,D4*%
X135731250Y-111856250D03*
X135731250Y-115156250D03*
%TD*%
%TO.C,D3*%
X115887500Y-111856250D03*
X115887500Y-115156250D03*
%TD*%
%TO.C,D2*%
X135731250Y-93600000D03*
X135731250Y-96900000D03*
%TD*%
%TO.C,D1*%
X115887500Y-93600000D03*
X115887500Y-96900000D03*
%TD*%
%TO.C,C7*%
G36*
G01*
X84760750Y-89477000D02*
X85673250Y-89477000D01*
G75*
G02*
X85917000Y-89720750I0J-243750D01*
G01*
X85917000Y-90208250D01*
G75*
G02*
X85673250Y-90452000I-243750J0D01*
G01*
X84760750Y-90452000D01*
G75*
G02*
X84517000Y-90208250I0J243750D01*
G01*
X84517000Y-89720750D01*
G75*
G02*
X84760750Y-89477000I243750J0D01*
G01*
G37*
G36*
G01*
X84760750Y-87602000D02*
X85673250Y-87602000D01*
G75*
G02*
X85917000Y-87845750I0J-243750D01*
G01*
X85917000Y-88333250D01*
G75*
G02*
X85673250Y-88577000I-243750J0D01*
G01*
X84760750Y-88577000D01*
G75*
G02*
X84517000Y-88333250I0J243750D01*
G01*
X84517000Y-87845750D01*
G75*
G02*
X84760750Y-87602000I243750J0D01*
G01*
G37*
%TD*%
%TO.C,c6*%
G36*
G01*
X95992000Y-88577000D02*
X95079500Y-88577000D01*
G75*
G02*
X94835750Y-88333250I0J243750D01*
G01*
X94835750Y-87845750D01*
G75*
G02*
X95079500Y-87602000I243750J0D01*
G01*
X95992000Y-87602000D01*
G75*
G02*
X96235750Y-87845750I0J-243750D01*
G01*
X96235750Y-88333250D01*
G75*
G02*
X95992000Y-88577000I-243750J0D01*
G01*
G37*
G36*
G01*
X95992000Y-90452000D02*
X95079500Y-90452000D01*
G75*
G02*
X94835750Y-90208250I0J243750D01*
G01*
X94835750Y-89720750D01*
G75*
G02*
X95079500Y-89477000I243750J0D01*
G01*
X95992000Y-89477000D01*
G75*
G02*
X96235750Y-89720750I0J-243750D01*
G01*
X96235750Y-90208250D01*
G75*
G02*
X95992000Y-90452000I-243750J0D01*
G01*
G37*
%TD*%
%TO.C,C5*%
G36*
G01*
X93530000Y-109779750D02*
X93530000Y-110692250D01*
G75*
G02*
X93286250Y-110936000I-243750J0D01*
G01*
X92798750Y-110936000D01*
G75*
G02*
X92555000Y-110692250I0J243750D01*
G01*
X92555000Y-109779750D01*
G75*
G02*
X92798750Y-109536000I243750J0D01*
G01*
X93286250Y-109536000D01*
G75*
G02*
X93530000Y-109779750I0J-243750D01*
G01*
G37*
G36*
G01*
X95405000Y-109779750D02*
X95405000Y-110692250D01*
G75*
G02*
X95161250Y-110936000I-243750J0D01*
G01*
X94673750Y-110936000D01*
G75*
G02*
X94430000Y-110692250I0J243750D01*
G01*
X94430000Y-109779750D01*
G75*
G02*
X94673750Y-109536000I243750J0D01*
G01*
X95161250Y-109536000D01*
G75*
G02*
X95405000Y-109779750I0J-243750D01*
G01*
G37*
%TD*%
%TO.C,C4*%
G36*
G01*
X81736250Y-89974000D02*
X80823750Y-89974000D01*
G75*
G02*
X80580000Y-89730250I0J243750D01*
G01*
X80580000Y-89242750D01*
G75*
G02*
X80823750Y-88999000I243750J0D01*
G01*
X81736250Y-88999000D01*
G75*
G02*
X81980000Y-89242750I0J-243750D01*
G01*
X81980000Y-89730250D01*
G75*
G02*
X81736250Y-89974000I-243750J0D01*
G01*
G37*
G36*
G01*
X81736250Y-91849000D02*
X80823750Y-91849000D01*
G75*
G02*
X80580000Y-91605250I0J243750D01*
G01*
X80580000Y-91117750D01*
G75*
G02*
X80823750Y-90874000I243750J0D01*
G01*
X81736250Y-90874000D01*
G75*
G02*
X81980000Y-91117750I0J-243750D01*
G01*
X81980000Y-91605250D01*
G75*
G02*
X81736250Y-91849000I-243750J0D01*
G01*
G37*
%TD*%
%TO.C,C3*%
G36*
G01*
X100024250Y-96070000D02*
X99111750Y-96070000D01*
G75*
G02*
X98868000Y-95826250I0J243750D01*
G01*
X98868000Y-95338750D01*
G75*
G02*
X99111750Y-95095000I243750J0D01*
G01*
X100024250Y-95095000D01*
G75*
G02*
X100268000Y-95338750I0J-243750D01*
G01*
X100268000Y-95826250D01*
G75*
G02*
X100024250Y-96070000I-243750J0D01*
G01*
G37*
G36*
G01*
X100024250Y-97945000D02*
X99111750Y-97945000D01*
G75*
G02*
X98868000Y-97701250I0J243750D01*
G01*
X98868000Y-97213750D01*
G75*
G02*
X99111750Y-96970000I243750J0D01*
G01*
X100024250Y-96970000D01*
G75*
G02*
X100268000Y-97213750I0J-243750D01*
G01*
X100268000Y-97701250D01*
G75*
G02*
X100024250Y-97945000I-243750J0D01*
G01*
G37*
%TD*%
%TO.C,C2*%
G36*
G01*
X79807750Y-106622000D02*
X80720250Y-106622000D01*
G75*
G02*
X80964000Y-106865750I0J-243750D01*
G01*
X80964000Y-107353250D01*
G75*
G02*
X80720250Y-107597000I-243750J0D01*
G01*
X79807750Y-107597000D01*
G75*
G02*
X79564000Y-107353250I0J243750D01*
G01*
X79564000Y-106865750D01*
G75*
G02*
X79807750Y-106622000I243750J0D01*
G01*
G37*
G36*
G01*
X79807750Y-104747000D02*
X80720250Y-104747000D01*
G75*
G02*
X80964000Y-104990750I0J-243750D01*
G01*
X80964000Y-105478250D01*
G75*
G02*
X80720250Y-105722000I-243750J0D01*
G01*
X79807750Y-105722000D01*
G75*
G02*
X79564000Y-105478250I0J243750D01*
G01*
X79564000Y-104990750D01*
G75*
G02*
X79807750Y-104747000I243750J0D01*
G01*
G37*
%TD*%
%TO.C,C1*%
G36*
G01*
X79704250Y-98102000D02*
X78791750Y-98102000D01*
G75*
G02*
X78548000Y-97858250I0J243750D01*
G01*
X78548000Y-97370750D01*
G75*
G02*
X78791750Y-97127000I243750J0D01*
G01*
X79704250Y-97127000D01*
G75*
G02*
X79948000Y-97370750I0J-243750D01*
G01*
X79948000Y-97858250D01*
G75*
G02*
X79704250Y-98102000I-243750J0D01*
G01*
G37*
G36*
G01*
X79704250Y-99977000D02*
X78791750Y-99977000D01*
G75*
G02*
X78548000Y-99733250I0J243750D01*
G01*
X78548000Y-99245750D01*
G75*
G02*
X78791750Y-99002000I243750J0D01*
G01*
X79704250Y-99002000D01*
G75*
G02*
X79948000Y-99245750I0J-243750D01*
G01*
X79948000Y-99733250D01*
G75*
G02*
X79704250Y-99977000I-243750J0D01*
G01*
G37*
%TD*%
M02*
