%TF.GenerationSoftware,KiCad,Pcbnew,(5.1.6)-1*%
%TF.CreationDate,2020-06-28T09:04:37-05:00*%
%TF.ProjectId,PcbTUT,50636254-5554-42e6-9b69-6361645f7063,rev?*%
%TF.SameCoordinates,Original*%
%TF.FileFunction,Legend,Top*%
%TF.FilePolarity,Positive*%
%FSLAX46Y46*%
G04 Gerber Fmt 4.6, Leading zero omitted, Abs format (unit mm)*
G04 Created by KiCad (PCBNEW (5.1.6)-1) date 2020-06-28 09:04:37*
%MOMM*%
%LPD*%
G01*
G04 APERTURE LIST*
%ADD10C,0.050800*%
%ADD11C,0.150000*%
%ADD12C,1.850000*%
%ADD13C,4.087800*%
%ADD14O,1.800000X2.800000*%
%ADD15R,1.900000X1.200000*%
G04 APERTURE END LIST*
D10*
X83529714Y-115545809D02*
X83529714Y-115037809D01*
X83820000Y-115545809D01*
X83820000Y-115037809D01*
X84255428Y-115521619D02*
X84207047Y-115545809D01*
X84110285Y-115545809D01*
X84061904Y-115521619D01*
X84037714Y-115473238D01*
X84037714Y-115279714D01*
X84061904Y-115231333D01*
X84110285Y-115207142D01*
X84207047Y-115207142D01*
X84255428Y-115231333D01*
X84279619Y-115279714D01*
X84279619Y-115328095D01*
X84037714Y-115376476D01*
X84424761Y-115207142D02*
X84618285Y-115207142D01*
X84497333Y-115037809D02*
X84497333Y-115473238D01*
X84521523Y-115521619D01*
X84569904Y-115545809D01*
X84618285Y-115545809D01*
X85077904Y-115497428D02*
X85053714Y-115521619D01*
X84981142Y-115545809D01*
X84932761Y-115545809D01*
X84860190Y-115521619D01*
X84811809Y-115473238D01*
X84787619Y-115424857D01*
X84763428Y-115328095D01*
X84763428Y-115255523D01*
X84787619Y-115158761D01*
X84811809Y-115110380D01*
X84860190Y-115062000D01*
X84932761Y-115037809D01*
X84981142Y-115037809D01*
X85053714Y-115062000D01*
X85077904Y-115086190D01*
X85368190Y-115545809D02*
X85319809Y-115521619D01*
X85295619Y-115473238D01*
X85295619Y-115037809D01*
X85561714Y-115545809D02*
X85561714Y-115207142D01*
X85561714Y-115037809D02*
X85537523Y-115062000D01*
X85561714Y-115086190D01*
X85585904Y-115062000D01*
X85561714Y-115037809D01*
X85561714Y-115086190D01*
X86021333Y-115521619D02*
X85972952Y-115545809D01*
X85876190Y-115545809D01*
X85827809Y-115521619D01*
X85803619Y-115497428D01*
X85779428Y-115449047D01*
X85779428Y-115303904D01*
X85803619Y-115255523D01*
X85827809Y-115231333D01*
X85876190Y-115207142D01*
X85972952Y-115207142D01*
X86021333Y-115231333D01*
X86239047Y-115545809D02*
X86239047Y-115037809D01*
X86287428Y-115352285D02*
X86432571Y-115545809D01*
X86432571Y-115207142D02*
X86239047Y-115400666D01*
X86843809Y-115521619D02*
X86795428Y-115545809D01*
X86698666Y-115545809D01*
X86650285Y-115521619D01*
X86626095Y-115473238D01*
X86626095Y-115279714D01*
X86650285Y-115231333D01*
X86698666Y-115207142D01*
X86795428Y-115207142D01*
X86843809Y-115231333D01*
X86868000Y-115279714D01*
X86868000Y-115328095D01*
X86626095Y-115376476D01*
X87085714Y-115545809D02*
X87085714Y-115207142D01*
X87085714Y-115303904D02*
X87109904Y-115255523D01*
X87134095Y-115231333D01*
X87182476Y-115207142D01*
X87230857Y-115207142D01*
X87714666Y-115037809D02*
X87884000Y-115545809D01*
X88053333Y-115037809D01*
X88222666Y-115497428D02*
X88246857Y-115521619D01*
X88222666Y-115545809D01*
X88198476Y-115521619D01*
X88222666Y-115497428D01*
X88222666Y-115545809D01*
X88561333Y-115037809D02*
X88609714Y-115037809D01*
X88658095Y-115062000D01*
X88682285Y-115086190D01*
X88706476Y-115134571D01*
X88730666Y-115231333D01*
X88730666Y-115352285D01*
X88706476Y-115449047D01*
X88682285Y-115497428D01*
X88658095Y-115521619D01*
X88609714Y-115545809D01*
X88561333Y-115545809D01*
X88512952Y-115521619D01*
X88488761Y-115497428D01*
X88464571Y-115449047D01*
X88440380Y-115352285D01*
X88440380Y-115231333D01*
X88464571Y-115134571D01*
X88488761Y-115086190D01*
X88512952Y-115062000D01*
X88561333Y-115037809D01*
X89214476Y-115545809D02*
X88924190Y-115545809D01*
X89069333Y-115545809D02*
X89069333Y-115037809D01*
X89020952Y-115110380D01*
X88972571Y-115158761D01*
X88924190Y-115182952D01*
D11*
%TO.C,SW1*%
X72120000Y-111760000D02*
G75*
G03*
X72120000Y-111760000I-1000000J0D01*
G01*
X68520000Y-114360000D02*
X68520000Y-109160000D01*
X73720000Y-114360000D02*
X68520000Y-114360000D01*
X73720000Y-109160000D02*
X73720000Y-114360000D01*
X68520000Y-109160000D02*
X73720000Y-109160000D01*
X69786666Y-116228761D02*
X69929523Y-116276380D01*
X70167619Y-116276380D01*
X70262857Y-116228761D01*
X70310476Y-116181142D01*
X70358095Y-116085904D01*
X70358095Y-115990666D01*
X70310476Y-115895428D01*
X70262857Y-115847809D01*
X70167619Y-115800190D01*
X69977142Y-115752571D01*
X69881904Y-115704952D01*
X69834285Y-115657333D01*
X69786666Y-115562095D01*
X69786666Y-115466857D01*
X69834285Y-115371619D01*
X69881904Y-115324000D01*
X69977142Y-115276380D01*
X70215238Y-115276380D01*
X70358095Y-115324000D01*
X70691428Y-115276380D02*
X70929523Y-116276380D01*
X71120000Y-115562095D01*
X71310476Y-116276380D01*
X71548571Y-115276380D01*
X72453333Y-116276380D02*
X71881904Y-116276380D01*
X72167619Y-116276380D02*
X72167619Y-115276380D01*
X72072380Y-115419238D01*
X71977142Y-115514476D01*
X71881904Y-115562095D01*
%TD*%
%LPC*%
X82314142Y-114608428D02*
X82423000Y-114644714D01*
X82604428Y-114644714D01*
X82677000Y-114608428D01*
X82713285Y-114572142D01*
X82749571Y-114499571D01*
X82749571Y-114427000D01*
X82713285Y-114354428D01*
X82677000Y-114318142D01*
X82604428Y-114281857D01*
X82459285Y-114245571D01*
X82386714Y-114209285D01*
X82350428Y-114173000D01*
X82314142Y-114100428D01*
X82314142Y-114027857D01*
X82350428Y-113955285D01*
X82386714Y-113919000D01*
X82459285Y-113882714D01*
X82640714Y-113882714D01*
X82749571Y-113919000D01*
X83076142Y-114136714D02*
X83076142Y-114898714D01*
X83076142Y-114173000D02*
X83148714Y-114136714D01*
X83293857Y-114136714D01*
X83366428Y-114173000D01*
X83402714Y-114209285D01*
X83439000Y-114281857D01*
X83439000Y-114499571D01*
X83402714Y-114572142D01*
X83366428Y-114608428D01*
X83293857Y-114644714D01*
X83148714Y-114644714D01*
X83076142Y-114608428D01*
X83765571Y-114644714D02*
X83765571Y-114136714D01*
X83765571Y-113882714D02*
X83729285Y-113919000D01*
X83765571Y-113955285D01*
X83801857Y-113919000D01*
X83765571Y-113882714D01*
X83765571Y-113955285D01*
X84128428Y-114644714D02*
X84128428Y-113882714D01*
X84201000Y-114354428D02*
X84418714Y-114644714D01*
X84418714Y-114136714D02*
X84128428Y-114427000D01*
X85035571Y-114608428D02*
X84963000Y-114644714D01*
X84817857Y-114644714D01*
X84745285Y-114608428D01*
X84709000Y-114535857D01*
X84709000Y-114245571D01*
X84745285Y-114173000D01*
X84817857Y-114136714D01*
X84963000Y-114136714D01*
X85035571Y-114173000D01*
X85071857Y-114245571D01*
X85071857Y-114318142D01*
X84709000Y-114390714D01*
X85725000Y-114644714D02*
X85725000Y-113882714D01*
X85725000Y-114608428D02*
X85652428Y-114644714D01*
X85507285Y-114644714D01*
X85434714Y-114608428D01*
X85398428Y-114572142D01*
X85362142Y-114499571D01*
X85362142Y-114281857D01*
X85398428Y-114209285D01*
X85434714Y-114173000D01*
X85507285Y-114136714D01*
X85652428Y-114136714D01*
X85725000Y-114173000D01*
X86051571Y-114608428D02*
X86160428Y-114644714D01*
X86341857Y-114644714D01*
X86414428Y-114608428D01*
X86450714Y-114572142D01*
X86487000Y-114499571D01*
X86487000Y-114427000D01*
X86450714Y-114354428D01*
X86414428Y-114318142D01*
X86341857Y-114281857D01*
X86196714Y-114245571D01*
X86124142Y-114209285D01*
X86087857Y-114173000D01*
X86051571Y-114100428D01*
X86051571Y-114027857D01*
X86087857Y-113955285D01*
X86124142Y-113919000D01*
X86196714Y-113882714D01*
X86378142Y-113882714D01*
X86487000Y-113919000D01*
X86741000Y-114136714D02*
X86922428Y-114644714D01*
X87103857Y-114136714D02*
X86922428Y-114644714D01*
X86849857Y-114826142D01*
X86813571Y-114862428D01*
X86741000Y-114898714D01*
X87394142Y-114136714D02*
X87394142Y-114644714D01*
X87394142Y-114209285D02*
X87430428Y-114173000D01*
X87503000Y-114136714D01*
X87611857Y-114136714D01*
X87684428Y-114173000D01*
X87720714Y-114245571D01*
X87720714Y-114644714D01*
X88410142Y-114644714D02*
X88410142Y-114245571D01*
X88373857Y-114173000D01*
X88301285Y-114136714D01*
X88156142Y-114136714D01*
X88083571Y-114173000D01*
X88410142Y-114608428D02*
X88337571Y-114644714D01*
X88156142Y-114644714D01*
X88083571Y-114608428D01*
X88047285Y-114535857D01*
X88047285Y-114463285D01*
X88083571Y-114390714D01*
X88156142Y-114354428D01*
X88337571Y-114354428D01*
X88410142Y-114318142D01*
X88773000Y-114136714D02*
X88773000Y-114898714D01*
X88773000Y-114173000D02*
X88845571Y-114136714D01*
X88990714Y-114136714D01*
X89063285Y-114173000D01*
X89099571Y-114209285D01*
X89135857Y-114281857D01*
X89135857Y-114499571D01*
X89099571Y-114572142D01*
X89063285Y-114608428D01*
X88990714Y-114644714D01*
X88845571Y-114644714D01*
X88773000Y-114608428D01*
X89426142Y-114608428D02*
X89498714Y-114644714D01*
X89643857Y-114644714D01*
X89716428Y-114608428D01*
X89752714Y-114535857D01*
X89752714Y-114499571D01*
X89716428Y-114427000D01*
X89643857Y-114390714D01*
X89535000Y-114390714D01*
X89462428Y-114354428D01*
X89426142Y-114281857D01*
X89426142Y-114245571D01*
X89462428Y-114173000D01*
X89535000Y-114136714D01*
X89643857Y-114136714D01*
X89716428Y-114173000D01*
X90369571Y-114608428D02*
X90297000Y-114644714D01*
X90151857Y-114644714D01*
X90079285Y-114608428D01*
X90043000Y-114535857D01*
X90043000Y-114245571D01*
X90079285Y-114173000D01*
X90151857Y-114136714D01*
X90297000Y-114136714D01*
X90369571Y-114173000D01*
X90405857Y-114245571D01*
X90405857Y-114318142D01*
X90043000Y-114390714D01*
D12*
%TO.C,MX2*%
X117792500Y-107950000D03*
X107632500Y-107950000D03*
D13*
X112712500Y-107950000D03*
%TD*%
D14*
%TO.C,USB1*%
X68994000Y-81127600D03*
X76294000Y-81127600D03*
X76294000Y-85627600D03*
X68994000Y-85627600D03*
%TD*%
D15*
%TO.C,SW1*%
X68020000Y-113610000D03*
X74220000Y-109910000D03*
X68020000Y-109910000D03*
X74220000Y-113610000D03*
%TD*%
D12*
%TO.C,MX3*%
X136842500Y-107950000D03*
X126682500Y-107950000D03*
D13*
X131762500Y-107950000D03*
%TD*%
D12*
%TO.C,MX1*%
X136842500Y-88900000D03*
X126682500Y-88900000D03*
D13*
X131762500Y-88900000D03*
%TD*%
D12*
%TO.C,MX0*%
X117792500Y-88900000D03*
X107632500Y-88900000D03*
D13*
X112712500Y-88900000D03*
%TD*%
M02*
