%TF.GenerationSoftware,KiCad,Pcbnew,(5.1.6)-1*%
%TF.CreationDate,2020-06-28T09:04:37-05:00*%
%TF.ProjectId,PcbTUT,50636254-5554-42e6-9b69-6361645f7063,rev?*%
%TF.SameCoordinates,Original*%
%TF.FileFunction,Soldermask,Top*%
%TF.FilePolarity,Negative*%
%FSLAX46Y46*%
G04 Gerber Fmt 4.6, Leading zero omitted, Abs format (unit mm)*
G04 Created by KiCad (PCBNEW (5.1.6)-1) date 2020-06-28 09:04:37*
%MOMM*%
%LPD*%
G01*
G04 APERTURE LIST*
%ADD10C,0.150000*%
%ADD11C,1.850000*%
%ADD12C,4.087800*%
%ADD13O,1.800000X2.800000*%
%ADD14R,1.900000X1.200000*%
G04 APERTURE END LIST*
D10*
X82314142Y-114608428D02*
X82423000Y-114644714D01*
X82604428Y-114644714D01*
X82677000Y-114608428D01*
X82713285Y-114572142D01*
X82749571Y-114499571D01*
X82749571Y-114427000D01*
X82713285Y-114354428D01*
X82677000Y-114318142D01*
X82604428Y-114281857D01*
X82459285Y-114245571D01*
X82386714Y-114209285D01*
X82350428Y-114173000D01*
X82314142Y-114100428D01*
X82314142Y-114027857D01*
X82350428Y-113955285D01*
X82386714Y-113919000D01*
X82459285Y-113882714D01*
X82640714Y-113882714D01*
X82749571Y-113919000D01*
X83076142Y-114136714D02*
X83076142Y-114898714D01*
X83076142Y-114173000D02*
X83148714Y-114136714D01*
X83293857Y-114136714D01*
X83366428Y-114173000D01*
X83402714Y-114209285D01*
X83439000Y-114281857D01*
X83439000Y-114499571D01*
X83402714Y-114572142D01*
X83366428Y-114608428D01*
X83293857Y-114644714D01*
X83148714Y-114644714D01*
X83076142Y-114608428D01*
X83765571Y-114644714D02*
X83765571Y-114136714D01*
X83765571Y-113882714D02*
X83729285Y-113919000D01*
X83765571Y-113955285D01*
X83801857Y-113919000D01*
X83765571Y-113882714D01*
X83765571Y-113955285D01*
X84128428Y-114644714D02*
X84128428Y-113882714D01*
X84201000Y-114354428D02*
X84418714Y-114644714D01*
X84418714Y-114136714D02*
X84128428Y-114427000D01*
X85035571Y-114608428D02*
X84963000Y-114644714D01*
X84817857Y-114644714D01*
X84745285Y-114608428D01*
X84709000Y-114535857D01*
X84709000Y-114245571D01*
X84745285Y-114173000D01*
X84817857Y-114136714D01*
X84963000Y-114136714D01*
X85035571Y-114173000D01*
X85071857Y-114245571D01*
X85071857Y-114318142D01*
X84709000Y-114390714D01*
X85725000Y-114644714D02*
X85725000Y-113882714D01*
X85725000Y-114608428D02*
X85652428Y-114644714D01*
X85507285Y-114644714D01*
X85434714Y-114608428D01*
X85398428Y-114572142D01*
X85362142Y-114499571D01*
X85362142Y-114281857D01*
X85398428Y-114209285D01*
X85434714Y-114173000D01*
X85507285Y-114136714D01*
X85652428Y-114136714D01*
X85725000Y-114173000D01*
X86051571Y-114608428D02*
X86160428Y-114644714D01*
X86341857Y-114644714D01*
X86414428Y-114608428D01*
X86450714Y-114572142D01*
X86487000Y-114499571D01*
X86487000Y-114427000D01*
X86450714Y-114354428D01*
X86414428Y-114318142D01*
X86341857Y-114281857D01*
X86196714Y-114245571D01*
X86124142Y-114209285D01*
X86087857Y-114173000D01*
X86051571Y-114100428D01*
X86051571Y-114027857D01*
X86087857Y-113955285D01*
X86124142Y-113919000D01*
X86196714Y-113882714D01*
X86378142Y-113882714D01*
X86487000Y-113919000D01*
X86741000Y-114136714D02*
X86922428Y-114644714D01*
X87103857Y-114136714D02*
X86922428Y-114644714D01*
X86849857Y-114826142D01*
X86813571Y-114862428D01*
X86741000Y-114898714D01*
X87394142Y-114136714D02*
X87394142Y-114644714D01*
X87394142Y-114209285D02*
X87430428Y-114173000D01*
X87503000Y-114136714D01*
X87611857Y-114136714D01*
X87684428Y-114173000D01*
X87720714Y-114245571D01*
X87720714Y-114644714D01*
X88410142Y-114644714D02*
X88410142Y-114245571D01*
X88373857Y-114173000D01*
X88301285Y-114136714D01*
X88156142Y-114136714D01*
X88083571Y-114173000D01*
X88410142Y-114608428D02*
X88337571Y-114644714D01*
X88156142Y-114644714D01*
X88083571Y-114608428D01*
X88047285Y-114535857D01*
X88047285Y-114463285D01*
X88083571Y-114390714D01*
X88156142Y-114354428D01*
X88337571Y-114354428D01*
X88410142Y-114318142D01*
X88773000Y-114136714D02*
X88773000Y-114898714D01*
X88773000Y-114173000D02*
X88845571Y-114136714D01*
X88990714Y-114136714D01*
X89063285Y-114173000D01*
X89099571Y-114209285D01*
X89135857Y-114281857D01*
X89135857Y-114499571D01*
X89099571Y-114572142D01*
X89063285Y-114608428D01*
X88990714Y-114644714D01*
X88845571Y-114644714D01*
X88773000Y-114608428D01*
X89426142Y-114608428D02*
X89498714Y-114644714D01*
X89643857Y-114644714D01*
X89716428Y-114608428D01*
X89752714Y-114535857D01*
X89752714Y-114499571D01*
X89716428Y-114427000D01*
X89643857Y-114390714D01*
X89535000Y-114390714D01*
X89462428Y-114354428D01*
X89426142Y-114281857D01*
X89426142Y-114245571D01*
X89462428Y-114173000D01*
X89535000Y-114136714D01*
X89643857Y-114136714D01*
X89716428Y-114173000D01*
X90369571Y-114608428D02*
X90297000Y-114644714D01*
X90151857Y-114644714D01*
X90079285Y-114608428D01*
X90043000Y-114535857D01*
X90043000Y-114245571D01*
X90079285Y-114173000D01*
X90151857Y-114136714D01*
X90297000Y-114136714D01*
X90369571Y-114173000D01*
X90405857Y-114245571D01*
X90405857Y-114318142D01*
X90043000Y-114390714D01*
D11*
%TO.C,MX2*%
X117792500Y-107950000D03*
X107632500Y-107950000D03*
D12*
X112712500Y-107950000D03*
%TD*%
D13*
%TO.C,USB1*%
X68994000Y-81127600D03*
X76294000Y-81127600D03*
X76294000Y-85627600D03*
X68994000Y-85627600D03*
%TD*%
D14*
%TO.C,SW1*%
X68020000Y-113610000D03*
X74220000Y-109910000D03*
X68020000Y-109910000D03*
X74220000Y-113610000D03*
%TD*%
D11*
%TO.C,MX3*%
X136842500Y-107950000D03*
X126682500Y-107950000D03*
D12*
X131762500Y-107950000D03*
%TD*%
D11*
%TO.C,MX1*%
X136842500Y-88900000D03*
X126682500Y-88900000D03*
D12*
X131762500Y-88900000D03*
%TD*%
D11*
%TO.C,MX0*%
X117792500Y-88900000D03*
X107632500Y-88900000D03*
D12*
X112712500Y-88900000D03*
%TD*%
M02*
